<svg xmlns="http://www.w3.org/2000/svg" xmlns:xlink="http://www.w3.org/1999/xlink" width="386" height="96" viewBox="0 0 386 96">
    <defs>
        <path id="a" d="M0 94.9h385.91V0H0z"/>
    </defs>
    <g fill="none" fill-rule="evenodd">
        <path d="M-130-36h1400v170.82H-130z"/>
        <g transform="translate(0 .275)">
            <path fill="#4DAD33" d="M3.998 48.089s2.454-2.1 3.176-2.896c.727-.794 1.304-.368.727.427-.58.803-3.614 3.771-3.903 2.469zM3.998 45.34s2.454-2.688 3.176-3.344c.727-.648 1.819-.648.875.579-.95 1.234-4.051 4.209-4.051 2.764M4.133 51.863s2.465-2.892 2.897-3.554c.437-.651 1.962-.945 1.303.439-.654 1.371-4.64 4.927-4.2 3.115M4.133 42.141s3.334-4.127 3.917-3.698c.571.439-4.936 6.523-3.917 3.698M4.349 39.092s3.701-4.277 4.274-3.688c.59.58-4.93 6.09-4.274 3.688M5.142 35.476s3.85-2.985 4.513-3.489c.638-.506.782.504-.084 1.232-.871.74-6.746 5.298-4.43 2.257M5.654 32.21s4.561-3.118 4.862-2.836c.293.293.723.66-5.153 3.784 0 0-.277-.228.29-.947M6.3 30.035s2.178-1.3 2.767-2.182c.586-.86 1.662-1.742 2.025-1.368.364.352-.875 2.25-4.791 4.052 0 0-.648.077 0-.502M8.05 25.821s2.54-1.081 3.188-1.804c.661-.738 1.821-.367.799.506-1.026.868-5.804 3.771-3.987 1.298M9.278 22.929s1.733-.51 2.18-1.016c.441-.515 1.738-1.46 1.45-.663-.292.795-1.381 2.102-3.988 2.102 0 0-.085-.36.358-.423M10.591 20.027s2.1-.803 2.467-1.239c.358-.436 1.67-1.522 1.584-.871-.066.65-1.003 1.885-2.457 2.469-1.458.581-3.851 1.526-1.594-.36M15.442 12.626l2.182-.365s2.69-1.018 0-.93c-2.68.062-1.313.28-1.313.28s-.355-.07-.5-2.037c-.435-.142-.573 0-.37 3.052M17.264 10.159s-.288-1.957.136-2.61c.443-.66.727-.075.664 1.592 0 0 3.032-.509 3.032-.216 0 .287-.434 1.022-1.444 1.083-1.004.077-2.388.15-2.388.15"/>
            <path fill="#4DAD33" d="M19.436 7.98s-.08-1.879.363-2.317c.427-.435.646.438.646 1.156 0 .73 1.162.36 1.75.36.578 0 .299.585-1.016.662-1.311.075-1.743.138-1.743.138M21.69 6.383s0-1.37.43-1.886c.432-.504.651-.212.573 1.027 0 0 2.471-.296 2.471.062 0 .366-.512.59-3.473.797M23.999 4.722s-.138-2.322.295-2.533c.437-.233.87-.297.87 1.74 0 0 2.105 0 2.105.354 0 .36-.59.439-3.27.439"/>
            <path fill="#4DAD33" d="M26.323 3.417s-.214-2.11.358-2.022c.59.058.59 1.505.59 1.505s1.444-.062 1.444.229c0 .288-.655.568-2.392.288M28.144 2.254s-.22-1.376.428-1.892c.652-.5.652.23.577 1.24 0 0 .075.355 1.095.29 1.01-.066 1.155.508 0 .578-1.162.075-2.1-.216-2.1-.216"/>
            <path fill="#4DAD33" d="M29.882 1.245s.144-.591.867-.884c.726-.288 1.882-.57 1.882-.14 0 .433-1.74 1.522-2.749 1.024M13.125 15.742s-.577-3.846-.067-3.921c.502-.07.217 1.532 1.004 2.257 0 0 1.313.063 1.823-.295.502-.355 1.959-.794.86.295-1.073 1.086-3.62 1.664-3.62 1.664"/>
            <path fill="#4DAD33" d="M11.604 18.141s2.178.067 3.262-1.09c1.09-1.16 1.522-2.249-.223-.875-1.736 1.386-2.539.795-2.539.795s-.575-2.033-.356-2.83c.22-.787-1.818.732-.144 4M9.364 21.113s-.809-2.4-.443-3.552c.355-1.165.947-.074 1.008.646.083.738.88 3.989-.565 2.906M8.334 23.719s-1.372-1.885-1.236-2.678c.146-.797.58-1.533 1.176-.074.56 1.451.646 3.408.06 2.752M6.232 22.419s-.869 1.09-.349 2.457c.504 1.386 1.362 1.96 1.362 1.96s.876-.353 0-1.521c-.858-1.158-.147-3.402-1.013-2.896M5.008 25.607s-.58-.07-.58 1.23c0 1.31 1.515 3.487 1.515 3.487s.867-.658.22-1.75c-.651-1.079-.8-3.259-1.155-2.967M3.479 28.218s-.652 1.018-.297 1.957c.376.95 1.6 2.9 1.6 2.9s.802-.584.359-1.448c-.437-.867-1.522-3.839-1.662-3.41M2.25 31.559s-.513 1.159-.225 1.96c.293.791 2.108 3.259 2.108 3.259s.295-.582-.136-1.667c-.439-1.09-1.606-3.987-1.748-3.552M1.667 34.746s-.508 1.376-.155 2.32c.361.948 2.253 2.905 2.253 2.905s.369-.226-.428-1.673c-.799-1.448-1.67-4.132-1.67-3.552M1.082 38.092s-.504 1.295-.139 2.014c.37.73 2.614 3.052 2.614 3.052s.65-1.083.061-1.597c-.579-.5-2.536-2.97-2.536-3.47M.512 41.06s1.154 2.17 1.737 2.898c.578.735 1.516 1.156 1.445 1.59-.075.44-.512.8-1.445-.068-.936-.87-2.406-2.25-1.737-4.42M0 44.542s-.065 1.74 1.019 2.6c1.085.882 2.383 1.608 2.383 1.608s.659-.956-.064-1.386C2.608 46.933 0 44.542 0 44.542M.221 47.794s-.22 1.094.43 2.034c.662.94 3.043 2.682 3.043 2.682s.803-1.302-.075-1.803C2.759 50.184.22 47.443.22 47.794"/>
            <path fill="#4DAD33" d="M4.744 53.324C3.627 43.096 4.99 32.322 9.27 22.817 13.477 13.23 21.333 5.423 30.818.88 21.232 5.175 13.093 12.855 8.581 22.497c-4.584 9.589-6.25 20.393-5.342 31.037l1.505-.21zM80.864 48.089s-2.465-2.1-3.195-2.896c-.728-.794-1.303-.368-.728.427.582.803 3.632 3.771 3.923 2.469M80.864 45.34s-2.465-2.688-3.195-3.344c-.728-.648-1.804-.648-.864.579.935 1.234 4.059 4.209 4.059 2.764M80.728 51.863s-2.474-2.892-2.904-3.554c-.437-.651-1.96-.945-1.321.439.668 1.371 4.658 4.927 4.225 3.115M80.728 42.141s-3.341-4.127-3.922-3.698c-.582.439 4.936 6.523 3.922 3.698M80.502 39.092s-3.695-4.277-4.278-3.688c-.588.58 4.936 6.09 4.278 3.688M79.715 35.476s-3.852-2.985-4.505-3.489c-.663-.506-.795.504.058 1.232.872.74 6.755 5.298 4.447 2.257M79.214 32.21s-4.588-3.118-4.877-2.836c-.293.293-.732.66 5.145 3.784 0 0 .305-.228-.268-.947M78.535 30.035s-2.17-1.3-2.754-2.182c-.572-.86-1.666-1.742-2.023-1.368-.354.352.867 2.25 4.777 4.052 0 0 .679.077 0-.502M76.806 25.821s-2.542-1.081-3.203-1.804c-.646-.738-1.807-.367-.795.506 1.014.868 5.81 3.771 3.998 1.298M75.577 22.929s-1.755-.51-2.173-1.016c-.447-.515-1.752-1.46-1.457-.663.289.795 1.386 2.102 3.99 2.102 0 0 .065-.36-.36-.423M74.265 20.027s-2.111-.803-2.468-1.239c-.369-.436-1.664-1.522-1.603-.871.075.65 1.03 1.885 2.476 2.469 1.446.581 3.832 1.526 1.595-.36M69.405 12.626l-2.168-.365s-2.689-1.018 0-.93c2.674.062 1.292.28 1.292.28s.374-.07.51-2.037c.436-.142.577 0 .366 3.052M67.593 10.159s.289-1.957-.155-2.61c-.42-.66-.713-.075-.648 1.592 0 0-3.042-.509-3.042-.216 0 .287.43 1.022 1.447 1.083 1.012.077 2.398.15 2.398.15"/>
            <path fill="#4DAD33" d="M65.41 7.98s.07-1.879-.361-2.317c-.435-.435-.644.438-.644 1.156 0 .73-1.157.36-1.746.36-.585 0-.295.585 1.018.662 1.31.075 1.733.138 1.733.138M63.166 6.383s0-1.37-.439-1.886c-.427-.504-.653-.212-.587 1.027 0 0-2.455-.296-2.455.062 0 .366.51.59 3.48.797M60.855 4.722s.133-2.322-.291-2.533c-.442-.233-.88-.297-.88 1.74 0 0-2.097 0-2.097.354 0 .36.567.439 3.268.439"/>
            <path fill="#4DAD33" d="M58.518 3.417s.22-2.11-.365-2.022c-.568.058-.568 1.505-.568 1.505s-1.449-.062-1.449.229c0 .288.655.568 2.382.288M56.714 2.254s.21-1.376-.429-1.892c-.665-.5-.665.23-.591 1.24 0 0-.074.355-1.084.29-1.016-.066-1.166.508 0 .578 1.149.075 2.104-.216 2.104-.216"/>
            <path fill="#4DAD33" d="M54.97 1.245s-.145-.591-.86-.884c-.734-.288-1.89-.57-1.89-.14 0 .433 1.74 1.522 2.75 1.024M71.73 15.742s.582-3.846.065-3.921c-.512-.07-.217 1.532-1.021 2.257 0 0-1.3.063-1.805-.295-.505-.355-1.95-.794-.864.295 1.078 1.086 3.626 1.664 3.626 1.664"/>
            <path fill="#4DAD33" d="M73.247 18.141s-2.178.067-3.27-1.09c-1.072-1.16-1.514-2.249.218-.875 1.751 1.386 2.55.795 2.55.795s.59-2.033.358-2.83c-.215-.787 1.812.732.144 4M75.493 21.113s.813-2.4.442-3.552c-.359-1.165-.946-.074-1.02.646-.064.738-.871 3.989.578 2.906M76.503 23.719s1.392-1.885 1.237-2.678c-.134-.797-.569-1.533-1.158-.074-.581 1.451-.646 3.408-.08 2.752M78.617 22.419s.866 1.09.363 2.457c-.504 1.386-1.373 1.96-1.373 1.96s-.872-.353 0-1.521c.87-1.158.134-3.402 1.01-2.896M79.857 25.607s.568-.07.568 1.23c0 1.31-1.528 3.487-1.528 3.487s-.866-.658-.223-1.75c.675-1.079.809-3.259 1.183-2.967M81.368 28.218s.657 1.018.29 1.957c-.35.95-1.589 2.9-1.589 2.9s-.792-.584-.353-1.448c.427-.867 1.52-3.839 1.652-3.41M82.6 31.559s.512 1.159.221 1.96c-.292.791-2.092 3.259-2.092 3.259s-.304-.582.136-1.667c.442-1.09 1.59-3.987 1.735-3.552M83.183 34.746s.507 1.376.154 2.32c-.367.948-2.256 2.905-2.256 2.905s-.353-.226.442-1.673c.8-1.448 1.66-4.132 1.66-3.552M83.769 38.092s.504 1.295.153 2.014c-.372.73-2.616 3.052-2.616 3.052s-.653-1.083-.07-1.597c.576-.5 2.533-2.97 2.533-3.47M84.35 41.06s-1.167 2.17-1.751 2.898c-.577.735-1.517 1.156-1.439 1.59.076.44.498.8 1.439-.068.95-.87 2.396-2.25 1.75-4.42M84.844 44.542s.08 1.74-1 2.6c-1.092.882-2.4 1.608-2.4 1.608s-.643-.956.078-1.386c.732-.431 3.322-2.822 3.322-2.822M84.635 47.794s.208 1.094-.44 2.034c-.645.94-3.035 2.682-3.035 2.682s-.81-1.302.076-1.803c.863-.523 3.4-3.264 3.4-2.913"/>
            <path fill="#4DAD33" d="M80.107 53.324c1.105-10.228-.25-21.002-4.505-30.507C71.375 13.23 63.512 5.423 54.028.88c9.596 4.295 17.735 11.975 22.244 21.617 4.569 9.589 6.245 20.393 5.353 31.037l-1.518-.21z"/>
            <path fill="#F3E62F" d="M42.87 38.638s-.78-1.256-1.362-2.133c-.594-.87-.97-1.64-.39-4.442.583-2.81.973-6.869.973-6.869s2.705 4.255 2.798 5.995c.096 1.74-.483 5.222-2.02 7.45"/>
            <path fill="#971B81" d="M23.04 45.597s1.154 1.743 1.35 2.517c.196.774.485 2.313.485 2.313l.679.099s1.058-1.449 2.121-1.449c1.065 0 8.899-.19 9.29-.289.39-.099 2.81-1.543 2.81-1.543s-.112 2.513-.396 4.262c-.29 1.738-.97 3.285-.97 3.285l5.418-.102s.101-1.838.195-2.225c.094-.383 3.087-3.962 3.087-3.962s8.417.385 9.385.385c.967 0 2.806 1.836 2.806 1.836s3.29-4.254 2.71-4.344c-.58-.097-1.363-.293-2.905-.975-1.549-.677-5.6-3.288-5.6-3.861 0-.578.28-1.941-.303-1.941-.577 0-3.177-1.158-7.724-1.358 0 0-.887-.766-2.707-.674-1.858.093-2.724.874-2.724.874s-4.334-.102-5.114.58c-.768.671-1.844 1.941-3.963 3.481-2.126 1.547-5.517 3.29-7.93 3.091"/>
            <path fill="#FEFEFE" d="M40.83 39.027v-.683h3.576v.785zM37.056 41.35s.299-1.844 5.814-1.746c5.5.091 5.978 1.84 5.978 1.84l-11.792-.095zM35.22 41.823s13.151.682 14.408.1c0 0-2.806 2.322-7.537 2.23-4.737-.099-6.87-2.33-6.87-2.33M34.35 40.674s.58-.978 1.27-1.072c.664-.095 2.026-.095 1.54.289-.487.39-1.258 1.075-2.81.783M24.875 46.568s.872 2.22 1.65 1.84c.762-.385 2.608-1.364 3.764-1.456 1.16-.101 2.127-.484 2.706-.863.58-.392 2.624-2.62 2.624-2.62s-.203-.58-1.548.585c-1.364 1.158-1.94 1.643-2.817 1.835-.863.2-2.03 0-2.03 0s1.167-.29 1.746-.774c.581-.475 1.446-2.03.386-1.546-1.067.485-4.928 2.999-6.48 2.999M33.188 43.183l.096-1.361 1.168.102v1.26zM33.378 46.47l.971-.673s1.163-1.159 1.553-1.551c.382-.388 1.35-.974 1.154-.091-.194.87-.194 2.414-.872 2.512-.672.097-3.095.579-2.806-.198M36.185 47.535s.78.489 1.168.194c.393-.287 3.766-3 2.794-2.806-.954.192-1.54.29-3.962 2.612M40.914 47.044s-.18-1.832.68-1.347c.889.485.59 1.942-.68 1.347M40.83 48.408s1.158-.68 1.056.184c-.087.878-.768 1.934-1.638 2.72-.869.77-.38-1.552-.099-2.037a4.97 4.97 0 0 1 .68-.867M48.848 42.989h1.167s.774-1.445 1.264-1.166c.478.294 1.346 1.262 1.346 1.646 0 .39-2.025.49-1.153.975.864.48 2.603 1.447 2.508.959-.096-.48-1.258-1.934-.573-1.934.668 0 2.213 1.743 3.466 1.934 1.269.195 3.691 1.447 3.691 1.447s-.293 1.655-1.077 1.744c-.76.096-1.25-.956-2.792-1.059-1.547-.094-4.26-.771-4.747-1.351-.476-.586-3.579-2.325-3.1-3.195M48.18 45.504s2.132.094 2.508.779c.39.669.783 1.357-.189 1.057-.971-.297-2.13-.87-2.319-1.836M43.726 46.087s1.164-.29 1.26.196c.097.481.388 1.158.678 1.355.289.192 1.072.671.576 1.148-.474.49-2.79.39-2.612 0 .199-.38.3-.38.488-1.148.205-.788-.577-1.07-.39-1.55"/>
            <path fill="#0052A0" d="M18.924 74.23c.28-1.156.359-2.44-.246-3.515-.784-1.411-2.556-1.935-3.95-1.153-1.44.792-1.857 2.64-1.07 4.052.6 1.08 1.548 1.69 2.716 2.036l-4.932 2.568c-.792-.552-1.926-2.223-2.382-3.072-2.078-3.703-.818-8.208 2.892-10.276 3.782-2.11 8.479-.821 10.6 2.985a10.85 10.85 0 0 1 1.234 3.469l-4.862 2.905zM26.1 84.224l.868-2.553c.203-.611.476-1.222.732-1.798l-.169-.115-3.25 3.31 1.82 1.156zm-5.89 2.65l-4.835-3.066 12.31-9.803 5.065 3.201-3.473 15.4-4.835-3.06.582-1.826-3.451-2.187-1.364 1.342zM37.61 79.933l5.568-.216 2.36 7.733.126-.02c.069-.646.144-1.337.306-1.969l1.45-5.915 5.489-.209 3.023 14.766-5.224.21-1.037-8.117h-.107c-.078.504-.165 1.02-.297 1.496l-1.885 6.752-3.149.123-2.189-6.21c-.176-.629-.337-1.212-.398-1.851l-.189.007c-.014.6-.028 1.215-.065 1.794l-.378 6.386-5.225.207 1.82-14.967zM54.707 78.004l8.274-5.616 2.276 3.36-3.767 2.562.79 1.17 3.437-2.338 2.18 3.196-3.45 2.345.81 1.207 3.926-2.65 2.278 3.36-8.41 5.704zM72.939 75.154l.321-.131c1.125-.464 2.246-1.159 2.863-2.243.262-.456.506-1.301-.079-1.635-.583-.337-.994.25-1.315.623l-.717.85c-1.378 1.637-3.333 2.554-5.345 1.395-3.066-1.769-3.188-5.543-1.552-8.345.85-1.46 1.99-2.608 3.483-3.431l2.569 3.173c-1.012.488-1.968 1.143-2.538 2.145-.245.407-.442 1.101.1 1.403.47.282.879-.262 1.172-.571l.845-.92c1.588-1.732 3.479-2.553 5.672-1.291 3.074 1.774 2.99 5.46 1.367 8.24-.935 1.617-2.476 3.24-4.033 4.274l-2.813-3.536z"/>
            <path fill="#1D1D1B" d="M96.051 6.763v85.345h.837V6.763"/>
            <path fill="#004F9E" d="M115.932 15.05c1.487 0 2.893.376 4.141 1.03l-.197 4.18-2.378.437-.08-3.289a4.6 4.6 0 0 0-1.446-.238c-2.278 0-4.122 1.705-4.122 5.152 0 3.645 1.942 5.072 4.221 5.072 1.209 0 2.477-.376 3.725-.872l.476 2.06a10.411 10.411 0 0 1-4.4 1.012c-3.645 0-6.954-2.2-6.954-7.272 0-4.696 3.15-7.272 7.014-7.272M134.924 27.434c2.319 0 4.003-2.061 4.003-5.113 0-3.07-1.684-5.112-4.003-5.112-2.298 0-3.982 2.042-3.982 5.112 0 3.052 1.684 5.113 3.982 5.113m0-12.384c4.023 0 6.936 2.932 6.936 7.271 0 4.34-2.913 7.273-6.936 7.273-4.002 0-6.915-2.933-6.915-7.273 0-4.339 2.913-7.27 6.915-7.27M150.35 15.287h2.635l4.735 6.975 1.784 2.814-.06-3.369v-6.42h2.616v14.069h-2.616l-4.736-6.955-1.803-2.854.08 3.389v6.42h-2.636zM171.422 26.424c1.525.594 2.972.99 4.3.99 1.584 0 2.516-.892 2.516-2.041 0-1.189-1.209-1.505-2.537-1.902-1.782-.476-4.953-1.15-4.953-4.28 0-2.16 1.545-4.14 5.23-4.14 1.487 0 2.993.336 4.34.85l-.495 2.22c-1.486-.514-2.754-.892-4.042-.892-1.486 0-2.22.734-2.22 1.704 0 1.031.912 1.387 2.021 1.725 1.962.554 5.45 1.188 5.45 4.458 0 2.753-2.18 4.478-5.726 4.478-1.487 0-3.013-.377-4.38-.912l.496-2.258zM189.642 15.287h9.829l-.14 2.16h-6.875v3.805l5.746-.179v2.299l-5.746-.178v4.002h7.213l-.14 2.16h-9.887z"/>
            <mask id="b" fill="#fff">
                <use xlink:href="#a"/>
            </mask>
            <path fill="#004F9E" d="M207.801 29.356h2.815V15.287H207.8zM219.724 15.287h2.815v11.909h6.834l-.139 2.16h-9.51zM252.76 23.729h3.985l-.993-3.071-1.01-3.19-.99 3.19-.993 3.07zm.357-8.442h3.39l5.17 14.069h-3.111l-1.13-3.468h-5.389l-1.11 3.468h-2.992l5.172-14.069zM269.77 15.287h9.332l-.157 2.16h-6.36v4.38l5.43-.18v2.3l-5.43-.179v5.588h-2.814zM291.755 22.222c1.526 0 2.735-.772 2.735-2.397 0-1.644-1.11-2.377-2.596-2.377h-2v4.774h1.861zm.318 2.081l-2.179.08v4.973h-2.814V15.287h5.231c2.933 0 5.092 1.487 5.092 4.439 0 2.001-1.052 3.33-2.635 4.023l3.784 5.607h-3.407l-3.072-5.053zM306.25 29.356h2.814V15.287h-2.814zM324.572 15.05c1.488 0 2.893.376 4.141 1.03l-.196 4.18-2.378.437-.08-3.289a4.602 4.602 0 0 0-1.448-.238c-2.278 0-4.12 1.705-4.12 5.152 0 3.645 1.941 5.072 4.22 5.072 1.21 0 2.476-.376 3.727-.872l.474 2.06a10.41 10.41 0 0 1-4.4 1.012c-3.644 0-6.954-2.2-6.954-7.272 0-4.696 3.152-7.272 7.014-7.272M341.07 23.729h3.982l-.992-3.071-1.009-3.19-.992 3.19-.99 3.07zm.354-8.442h3.39l5.171 14.069h-3.111l-1.128-3.468h-5.39l-1.11 3.468h-2.991l5.17-14.069zM358.078 29.356h2.814V15.287h-2.814zM370.002 15.287h2.636l4.734 6.975 1.784 2.814-.06-3.369v-6.42h2.616v14.069h-2.615L374.36 22.4l-1.802-2.854.08 3.389v6.42h-2.636zM109.532 39.053h9.829l-.14 2.16h-6.875v3.805l5.747-.18v2.3l-5.747-.178v4.003h7.212l-.139 2.159h-9.887zM125.475 39.053h11.373l-.138 2.16h-4.22v11.909h-2.795V41.213h-4.359zM155.322 39.053h3.526l2.496 7.788.972 3.308.97-3.308 2.497-7.788h3.528l1.882 14.069h-2.834l-.812-7.57-.317-3.428-1.05 3.429-2.398 7.569h-3.091l-2.417-7.57-1.07-3.467-.298 3.468-.792 7.569h-2.655zM182.376 47.494h3.982l-.99-3.07-1.01-3.19-.991 3.19-.991 3.07zm.356-8.44h3.389l5.171 14.068h-3.11l-1.13-3.47h-5.39l-1.11 3.47h-2.99l5.17-14.069zM198.137 39.053h2.814v11.91h6.837l-.14 2.159h-9.511zM221.173 38.816c1.665 0 3.31.416 4.577 1.01l-.455 2.061c-1.268-.495-2.792-.872-4.022-.872-2.358 0-4.418 1.427-4.418 5.072s2.06 5.074 4.418 5.074c.614 0 1.267-.12 1.92-.298v-3.329l-3.149.1v-2.3l5.765.238v6.756c-1.345.615-2.971 1.032-4.636 1.032-3.802 0-7.251-2.2-7.251-7.273 0-5.072 3.45-7.27 7.251-7.27M237.175 47.494h3.983l-.992-3.07-1.009-3.19-.992 3.19-.99 3.07zm.355-8.44h3.39l5.171 14.068h-3.112l-1.127-3.47h-5.39l-1.11 3.47h-2.992l5.17-14.069zM258.546 38.816a8.9 8.9 0 0 1 4.14 1.03l-.198 4.18-2.378.437-.08-3.289a4.592 4.592 0 0 0-1.444-.238c-2.278 0-4.124 1.704-4.124 5.151 0 3.645 1.943 5.074 4.223 5.074 1.207 0 2.477-.377 3.723-.874l.476 2.06a10.392 10.392 0 0 1-4.397 1.013c-3.648 0-6.957-2.2-6.957-7.273 0-4.695 3.15-7.27 7.016-7.27M269.989 39.053h2.814v5.707h6.182v-5.707h2.812v14.069h-2.812V46.92h-6.182v6.202h-2.814zM289.656 39.053h9.827l-.139 2.16h-6.874v3.805l5.745-.18v2.3l-5.745-.178v4.003h7.211l-.139 2.159h-9.886zM321.78 46.187c1.585 0 2.833-.813 2.833-2.497 0-1.703-1.13-2.477-2.695-2.477h-2.198v4.974h2.06zm-4.875-7.134h5.428c2.993 0 5.211 1.606 5.211 4.637 0 2.992-2.357 4.657-5.368 4.657h-2.456v4.775h-2.815V39.053zM340.773 51.2c2.318 0 4.003-2.061 4.003-5.113 0-3.07-1.685-5.112-4.003-5.112-2.298 0-3.982 2.041-3.982 5.112 0 3.052 1.684 5.114 3.982 5.114m0-12.385c4.023 0 6.934 2.932 6.934 7.271 0 4.34-2.91 7.273-6.934 7.273-4.003 0-6.914-2.933-6.914-7.273 0-4.339 2.911-7.27 6.914-7.27M357.666 39.053v9.095c0 2.16 1.405 3.053 3.09 3.053 1.704 0 3.11-.893 3.11-3.053v-9.095h2.794v9.036c0 3.804-2.655 5.27-5.904 5.27-3.25 0-5.885-1.466-5.885-5.27v-9.036h2.795zM379.115 45.988c1.524 0 2.734-.773 2.734-2.397 0-1.644-1.111-2.378-2.596-2.378h-2v4.775h1.862zm.317 2.08l-2.179.08v4.974h-2.814V39.053h5.231c2.931 0 5.092 1.486 5.092 4.438 0 2.002-1.052 3.33-2.635 4.023l3.783 5.608h-3.408l-3.07-5.053zM109.532 62.818h2.814v11.91h6.836l-.139 2.16h-9.51zM121.198 61.473c2.2 1.781 2.22 5.725-1.307 7.53l-.853-1.172c2.021-1.346 1.645-3.643-.099-5.212l2.26-1.146zM124.781 62.818h9.829l-.139 2.16h-6.875v3.806l5.746-.18v2.299l-5.746-.178v4.002h7.211l-.139 2.162h-9.887zM136.288 62.818h2.635l4.735 6.976 1.785 2.814-.06-3.368v-6.422h2.616v14.07h-2.616l-4.736-6.955-1.803-2.854.08 3.387v6.423h-2.636zM150.706 73.955c1.526.596 2.973.99 4.3.99 1.584 0 2.516-.89 2.516-2.041 0-1.187-1.208-1.505-2.536-1.902-1.783-.476-4.954-1.149-4.954-4.278 0-2.161 1.546-4.142 5.231-4.142 1.486 0 2.993.335 4.34.851l-.496 2.22c-1.485-.515-2.754-.892-4.042-.892-1.486 0-2.22.732-2.22 1.705 0 1.03.913 1.385 2.022 1.722 1.962.556 5.45 1.19 5.45 4.46 0 2.752-2.18 4.479-5.727 4.479-1.486 0-3.012-.377-4.38-.913l.496-2.259zM162.271 62.818h9.829l-.14 2.16h-6.875v3.806l5.747-.18v2.299l-5.747-.178v4.002h7.212l-.139 2.162h-9.887zM173.777 76.889h2.815V62.818h-2.815zM185.684 62.582c1.664 0 3.308.415 4.576 1.01l-.455 2.06c-1.268-.496-2.795-.87-4.023-.87-2.357 0-4.419 1.426-4.419 5.071 0 3.646 2.062 5.073 4.42 5.073.613 0 1.267-.12 1.921-.296V71.3l-3.15.1V69.1l5.766.238v6.756c-1.348.615-2.972 1.031-4.636 1.031-3.804 0-7.253-2.2-7.253-7.273 0-5.072 3.449-7.271 7.253-7.271M192.473 62.818h2.636l4.735 6.976 1.784 2.814-.06-3.368v-6.422h2.616v14.07h-2.616l-4.737-6.955-1.802-2.854.08 3.387v6.423h-2.636zM206.635 62.818h9.827l-.14 2.16h-6.873v3.806l5.745-.18v2.299l-5.745-.178v4.002h7.212l-.14 2.162h-9.886zM219.526 62.818h3.529l2.496 7.787.97 3.31.971-3.31 2.497-7.787h3.528l1.882 14.07h-2.834l-.812-7.569-.317-3.429-1.05 3.43-2.398 7.569h-3.092l-2.417-7.57-1.07-3.468-.297 3.468-.792 7.57h-2.655zM237.371 62.818h9.827l-.139 2.16h-6.874v3.806l5.746-.18v2.299l-5.746-.178v4.002h7.212l-.139 2.162h-9.887zM248.877 62.818h2.636l4.735 6.976 1.782 2.814-.06-3.368v-6.422h2.616v14.07h-2.615l-4.735-6.955-1.802-2.854.08 3.387v6.423h-2.637zM262.067 62.818h11.373l-.139 2.16h-4.221v11.91h-2.794v-11.91h-4.358zM279.971 73.955c1.524.596 2.971.99 4.299.99 1.583 0 2.516-.89 2.516-2.041 0-1.187-1.209-1.505-2.536-1.902-1.782-.476-4.953-1.149-4.953-4.278 0-2.161 1.543-4.142 5.23-4.142 1.485 0 2.994.335 4.339.851l-.496 2.22c-1.485-.515-2.753-.892-4.04-.892-1.487 0-2.22.732-2.22 1.705 0 1.03.912 1.385 2.02 1.722 1.961.556 5.45 1.19 5.45 4.46 0 2.752-2.179 4.479-5.727 4.479-1.484 0-3.013-.377-4.378-.913l.496-2.259zM294.25 62.818v9.097c0 2.16 1.407 3.05 3.09 3.05 1.704 0 3.112-.89 3.112-3.05v-9.097h2.794v9.037c0 3.803-2.656 5.272-5.906 5.272-3.249 0-5.884-1.469-5.884-5.272v-9.037h2.794zM310.49 69.953c1.587 0 2.833-.812 2.833-2.497 0-1.705-1.127-2.477-2.695-2.477h-2.198v4.974h2.06zm-4.875-7.135h5.43c2.993 0 5.211 1.608 5.211 4.638 0 2.99-2.357 4.658-5.37 4.658h-2.456v4.775h-2.815V62.818zM326.16 58.6l-3.59 3.091h-2.376l2.576-3.23 3.39.138zm-8.383 4.218h9.827l-.14 2.16h-6.873v3.806l5.747-.18v2.299l-5.747-.178v4.002h7.211l-.139 2.162h-9.886V62.818zM333.959 69.754c1.525 0 2.734-.772 2.734-2.397 0-1.646-1.11-2.378-2.596-2.378h-2v4.775h1.862zm.317 2.082l-2.179.079v4.974h-2.814V62.818h5.231c2.934 0 5.092 1.489 5.092 4.44 0 2.002-1.051 3.328-2.635 4.022l3.784 5.609h-3.407l-3.072-5.053zM341.8 76.889h2.813V62.818H341.8zM347.068 62.818h9.828l-.14 2.16h-6.874v3.806l5.746-.18v2.299l-5.746-.178v4.002h7.212l-.139 2.162h-9.887zM361.29 62.818v9.097c0 2.16 1.404 3.05 3.09 3.05 1.704 0 3.11-.89 3.11-3.05v-9.097h2.793v9.037c0 3.803-2.654 5.272-5.904 5.272-3.248 0-5.884-1.469-5.884-5.272v-9.037h2.794zM377.332 69.754c1.524 0 2.733-.772 2.733-2.397 0-1.646-1.11-2.378-2.596-2.378h-2v4.775h1.863zm.316 2.082l-2.179.079v4.974h-2.814V62.818h5.231c2.931 0 5.092 1.489 5.092 4.44 0 2.002-1.05 3.328-2.635 4.022l3.785 5.609h-3.41l-3.07-5.053z" mask="url(#b)"/>
        </g>
    </g>
</svg>