<svg xmlns="http://www.w3.org/2000/svg" viewBox="0 0 369.61 570.53"><defs><style>.cls-1{fill:#e8ad24;}.cls-2{fill:#cc3f29;}.cls-3{font-size:106.3px;font-family:Mont-SemiBold, Mont;font-weight:600;}.cls-4{letter-spacing:-0.02em;}.cls-5{letter-spacing:-0.08em;}.cls-6{letter-spacing:-0.03em;}.cls-7{letter-spacing:-0.01em;}.cls-8{font-size:24.81px;fill:#e9b021;font-family:Mont-Heavy, Mont;font-weight:800;}.cls-9{letter-spacing:-0.01em;}.cls-10{letter-spacing:0em;}.cls-11{letter-spacing:0em;}</style></defs><title>Logo caysti</title><g id="Calque_2" data-name="Calque 2"><g id="Calque_1-2" data-name="Calque 1"><g id="logo_caysti" data-name="logo caysti"><polygon points="200.85 288.17 184.8 368.12 168.75 288.17 200.85 288.17"/><path d="M245.38,382.53a60.58,60.58,0,1,1-87.24-54.38,54.53,54.53,0,1,0,53.33,0A60.48,60.48,0,0,1,245.38,382.53Z"/><path d="M289.41,99.15c-12.17.26-37.54,2.72-58.28,21a76.5,76.5,0,0,0-10,10.7c0,.07,0,.15,0,.23l-36.22-27.27-41.57,28.25-.09-.46a71.52,71.52,0,0,0-10-12.49c-18.63-18.59-42.61-21.9-53.05-22.67a355,355,0,0,1,209.22,2.7Z"/><path class="cls-1" d="M221.11,131.09q-4.34,64.23-8.64,128.47L156.26,203.3l-12.94-71.23,41.57-28.25Z"/><polygon class="cls-2" points="147.88 288.17 156.54 204.87 156.26 203.3 212.47 259.56 231.01 288.17 147.88 288.17"/><ellipse cx="185.05" cy="32.75" rx="21.85" ry="31.55"/><path d="M206.9,1.2A6.49,6.49,0,0,1,211.81.09a7.11,7.11,0,0,1,4.55,2.83,7.45,7.45,0,0,1,1.34,5.39A7.85,7.85,0,0,1,215,13.23l-.42-2.1a9.1,9.1,0,0,1,4.48,3,7.33,7.33,0,0,1,1.6,5.16A7.85,7.85,0,0,1,218.47,24a8,8,0,0,1-4.29,2.37,9.27,9.27,0,0,0,3.37-3.1,7.14,7.14,0,0,0,1.18-4.05,5.65,5.65,0,0,0-1.48-3.64,7.16,7.16,0,0,0-3.41-2.13l-2.25-.63,1.83-1.47a5.6,5.6,0,0,0,2-3.4,5.79,5.79,0,0,0-.65-4,6.16,6.16,0,0,0-3.26-2.72A7,7,0,0,0,206.9,1.2Z"/><path d="M218.24,51c.62,4.79-2.68,5.29-2.68,5.29s-2.47,2.24-5.79-1.28-.1-11.16-.1-11.16S217.61,46.18,218.24,51Z"/><path d="M162.71,1.2a7,7,0,0,0-4.62.05A6.2,6.2,0,0,0,154.83,4a5.84,5.84,0,0,0-.65,4,5.61,5.61,0,0,0,2,3.4L158,12.82l-2.25.63a7.16,7.16,0,0,0-3.41,2.13,5.6,5.6,0,0,0-1.48,3.64,7,7,0,0,0,1.18,4.05,9.32,9.32,0,0,0,3.36,3.1A8.07,8.07,0,0,1,151.13,24,7.78,7.78,0,0,1,149,19.28a7.23,7.23,0,0,1,1.6-5.16,9.1,9.1,0,0,1,4.48-3l-.43,2.1a7.9,7.9,0,0,1-2.75-4.92,7.55,7.55,0,0,1,1.34-5.39A7.16,7.16,0,0,1,157.79.09,6.53,6.53,0,0,1,162.71,1.2Z"/><path d="M151.37,51c-.62,4.79,2.68,5.29,2.68,5.29s2.47,2.24,5.79-1.28.1-11.16.1-11.16S152,46.18,151.37,51Z"/></g><text class="cls-3" transform="translate(0 531.39)"><tspan class="cls-4">C</tspan><tspan class="cls-5" x="80.15" y="0">A</tspan><tspan class="cls-6" x="146.91" y="0">Y</tspan><tspan class="cls-7" x="214.94" y="0">S</tspan><tspan x="278.08" y="0">TI</tspan></text><text class="cls-8" transform="translate(15.41 562.39)"><tspan class="cls-9">N</tspan><tspan class="cls-10" x="18.66" y="0">o </tspan><tspan class="cls-11" x="40.42" y="0">L</tspan><tspan x="53.47" y="0">earning without Doing</tspan></text></g></g></svg>