<?xml version="1.0" encoding="utf-8"?>
<svg width="40.000977px" height="759px" viewBox="0 0 40.000977 759" version="1.1" xmlns:xlink="http://www.w3.org/1999/xlink" xmlns="http://www.w3.org/2000/svg">
  <defs>
    <linearGradient gradientUnits="userSpaceOnUse" x1="0" y1="0" x2="30.000977" y2="749" id="gradient_1">
      <stop offset="51.851852%" stop-color="#c12227" />
      <stop offset="100%" stop-color="#FFFFFF" />
    </linearGradient>
  </defs>
  <path d="M5 50C5 41.7157 11.7157 35 20 35C28.2843 35 35 41.7157 35 50C35 58.2843 28.2843 65 20 65C11.7157 65 5 58.2843 5 50ZM5.00098 118C5.00098 109.716 11.7167 103 20.001 103C28.2853 103 35.001 109.716 35.001 118C35.001 126.284 28.2853 133 20.001 133C11.7167 133 5.00098 126.284 5.00098 118ZM20.001 363.5C11.7167 363.5 5.00098 370.216 5.00098 378.5C5.00098 386.784 11.7167 393.5 20.001 393.5C28.2853 393.5 35.001 386.784 35.001 378.5C35.001 370.216 28.2853 363.5 20.001 363.5ZM20.001 474C11.7167 474 5.00098 480.716 5.00098 489C5.00098 497.284 11.7167 504 20.001 504C28.2853 504 35.001 497.284 35.001 489C35.001 480.716 28.2853 474 20.001 474ZM5.00098 629C5.00098 620.716 11.7167 614 20.001 614C28.2853 614 35.001 620.716 35.001 629C35.001 637.284 28.2853 644 20.001 644C11.7167 644 5.00098 637.284 5.00098 629ZM20 5L20 35.5M20 65.5L20 101.5M20 133L20 363.5M20 393.5L20 474M21 504L21 614M21 644L21 754" id="parcours" fill="none" fill-rule="evenodd" stroke="url(#gradient_1)" stroke-width="10" stroke-linecap="round" />
</svg>